<?xml version="1.0" encoding="UTF-8"?>
<svg xmlns="http://www.w3.org/2000/svg" width="180" height="116" viewBox="0 0 180 116" fill="none">
  <path fill-rule="evenodd" clip-rule="evenodd" d="M10.9289 74.9722V82.9701L4.42941 74.9722H1.00068V89.9823H5.08119V81.9844L11.5806 89.9823H15.0101V74.9722H10.9289Z" fill="#D44427"></path>
  <path fill-rule="evenodd" clip-rule="evenodd" d="M21.2846 83.2257H26.1068C25.8888 81.9883 24.9771 81.2058 23.6957 81.2058C22.4143 81.2058 21.524 81.9883 21.2846 83.2257ZM29.9083 85.3964H21.3494C21.6962 86.5912 22.7177 87.2861 24.2384 87.2861C25.3895 87.2861 26.1495 86.96 26.9537 86.2659L29.1262 88.5235C27.9965 89.783 26.3454 90.4344 24.1081 90.4344C19.9163 90.4344 17.2003 87.8499 17.2003 84.3328C17.2003 80.7944 19.959 78.2754 23.6736 78.2754C27.1496 78.2754 29.9731 80.4904 29.9731 84.377C29.9731 84.681 29.9297 85.0711 29.9083 85.3964Z" fill="#D44427"></path>
  <path fill-rule="evenodd" clip-rule="evenodd" d="M31.8815 90.2393H36.0093V78.4712H31.8815V90.2393ZM31.4257 74.9754C31.4257 73.7372 32.4251 72.7817 33.9466 72.7817C35.4658 72.7817 36.466 73.6717 36.466 74.9098C36.466 76.212 35.4658 77.1682 33.9466 77.1682C32.4251 77.1682 31.4257 76.212 31.4257 74.9754Z" fill="#D44427"></path>
  <path fill-rule="evenodd" clip-rule="evenodd" d="M47.26 83.9419C47.26 82.5095 46.1737 81.554 44.6964 81.554C43.2199 81.554 42.1115 82.5095 42.1115 83.9419C42.1115 85.3743 43.2199 86.3527 44.6964 86.3527C46.1737 86.3527 47.26 85.3743 47.26 83.9419ZM51.3435 78.4704V88.0891C51.3435 92.5404 48.8234 94.6464 44.4357 94.6464C42.1763 94.6464 40.0259 94.1252 38.592 93.105L40.0914 90.2173C41.0687 90.999 42.6763 91.476 44.0668 91.476C46.2827 91.476 47.2157 90.477 47.2157 88.6316V88.2408C46.4123 89.1749 45.2178 89.6305 43.7199 89.6305C40.5915 89.6305 37.941 87.4156 37.941 83.9419C37.941 80.4904 40.5915 78.2754 43.7199 78.2754C45.3481 78.2754 46.6082 78.7958 47.4116 79.9036V78.4704H51.3435Z" fill="#D44427"></path>
  <path fill-rule="evenodd" clip-rule="evenodd" d="M66.5241 83.5079V90.2388H62.3971V84.1814C62.3971 82.4876 61.6584 81.7706 60.4639 81.7706C59.1383 81.7706 58.1168 82.5958 58.1168 84.5494V90.2388H53.9906V74.1284H58.1168V79.5557C59.0308 78.7092 60.268 78.2757 61.6584 78.2757C64.4171 78.2757 66.5241 79.8605 66.5241 83.5079Z" fill="#D44427"></path>
  <path fill-rule="evenodd" clip-rule="evenodd" d="M78.1211 84.3331C78.1211 82.5524 77.0349 81.5535 75.6445 81.5535C74.254 81.5535 73.1678 82.5524 73.1678 84.3331C73.1678 86.135 74.254 87.156 75.6445 87.156C77.0349 87.156 78.1211 86.135 78.1211 84.3331ZM82.2916 84.3331C82.2916 88.0894 79.7067 90.4347 76.5143 90.4347C74.9714 90.4347 73.8203 90.0004 73.0374 89.0662V90.2388H69.1064V74.1284H73.2334V79.4909C74.0376 78.6657 75.1452 78.2757 76.5143 78.2757C79.7067 78.2757 82.2916 80.5988 82.2916 84.3331Z" fill="#D44427"></path>
  <path fill-rule="evenodd" clip-rule="evenodd" d="M92.5851 84.3333C92.5851 82.5526 91.5201 81.5537 90.1084 81.5537C88.718 81.5537 87.6317 82.5526 87.6317 84.3333C87.6317 86.1353 88.718 87.1563 90.1084 87.1563C91.5201 87.1563 92.5851 86.1353 92.5851 84.3333ZM83.4613 84.3333C83.4613 80.7949 86.2642 78.2759 90.1084 78.2759C93.9968 78.2759 96.7555 80.7949 96.7555 84.3333C96.7555 87.8938 93.9968 90.4349 90.1084 90.4349C86.2642 90.4349 83.4613 87.8938 83.4613 84.3333Z" fill="#D44427"></path>
  <path fill-rule="evenodd" clip-rule="evenodd" d="M111.046 78.4707V90.2388H107.114V88.9794C106.224 89.9569 104.964 90.4339 103.617 90.4339C100.728 90.4339 98.6201 88.7843 98.6201 85.0493V78.4707H102.748V84.3765C102.748 86.1998 103.464 86.9168 104.703 86.9168C105.919 86.9168 106.918 86.1137 106.918 84.138V78.4707H111.046Z" fill="#D44427"></path>
  <path fill-rule="evenodd" clip-rule="evenodd" d="M121.578 78.2759V81.988C121.209 81.9446 120.948 81.9233 120.644 81.9233C118.971 81.9233 117.82 82.7698 117.82 84.8323V90.2391H113.693V78.4709H117.624V79.882C118.471 78.8184 119.84 78.2759 121.578 78.2759Z" fill="#D44427"></path>
  <path fill-rule="evenodd" clip-rule="evenodd" d="M135.804 83.5079V90.2388H131.676V84.1814C131.676 82.4876 130.938 81.7706 129.743 81.7706C128.418 81.7706 127.397 82.5958 127.397 84.5494V90.2388H123.271V74.1284H127.397V79.5557C128.31 78.7092 129.548 78.2757 130.938 78.2757C133.697 78.2757 135.804 79.8605 135.804 83.5079Z" fill="#D44427"></path>
  <path fill-rule="evenodd" clip-rule="evenodd" d="M146.944 84.3333C146.944 82.5526 145.879 81.5537 144.468 81.5537C143.077 81.5537 141.991 82.5526 141.991 84.3333C141.991 86.1353 143.077 87.1563 144.468 87.1563C145.879 87.1563 146.944 86.1353 146.944 84.3333ZM137.821 84.3333C137.821 80.7949 140.623 78.2759 144.468 78.2759C148.356 78.2759 151.115 80.7949 151.115 84.3333C151.115 87.8938 148.356 90.4349 144.468 90.4349C140.623 90.4349 137.821 87.8938 137.821 84.3333Z" fill="#D44427"></path>
  <path fill-rule="evenodd" clip-rule="evenodd" d="M161.408 84.3333C161.408 82.5526 160.343 81.5537 158.932 81.5537C157.541 81.5537 156.455 82.5526 156.455 84.3333C156.455 86.1353 157.541 87.1563 158.932 87.1563C160.343 87.1563 161.408 86.1353 161.408 84.3333ZM152.284 84.3333C152.284 80.7949 155.087 78.2759 158.932 78.2759C162.82 78.2759 165.579 80.7949 165.579 84.3333C165.579 87.8938 162.82 90.4349 158.932 90.4349C155.087 90.4349 152.284 87.8938 152.284 84.3333Z" fill="#D44427"></path>
  <path fill-rule="evenodd" clip-rule="evenodd" d="M175.937 84.3331C175.937 82.5524 174.873 81.5535 173.483 81.5535C172.071 81.5535 171.007 82.5524 171.007 84.3331C171.007 86.135 172.071 87.156 173.483 87.156C174.873 87.156 175.937 86.135 175.937 84.3331ZM180 74.1284V90.2388H176.067V89.0662C175.286 90.0004 174.134 90.4347 172.613 90.4347C169.399 90.4347 166.814 88.0894 166.814 84.3331C166.814 80.5988 169.399 78.2757 172.613 78.2757C173.982 78.2757 175.09 78.6657 175.872 79.4909V74.1284H180Z" fill="#D44427"></path>
  <path fill-rule="evenodd" clip-rule="evenodd" d="M-7.62939e-05 114.002L0.803361 112.308C1.93307 113.328 3.86622 114.067 5.82149 114.067C8.44984 114.067 9.57955 113.046 9.57955 111.721C9.57955 108.009 0.369647 110.354 0.369647 104.708C0.369647 102.364 2.19298 100.366 6.19121 100.366C7.97189 100.366 9.81892 100.844 11.0774 101.713L10.3617 103.45C9.03603 102.602 7.53738 102.212 6.19121 102.212C3.60552 102.212 2.49793 103.297 2.49793 104.622C2.49793 108.335 11.7078 106.012 11.7078 111.592C11.7078 113.915 9.84025 115.913 5.82149 115.913C3.49729 115.913 1.21653 115.131 -7.62939e-05 114.002Z" fill="#D44427"></path>
  <path fill-rule="evenodd" clip-rule="evenodd" d="M33.6886 109.117V115.74H31.6022V109.356C31.6022 107.098 30.5167 105.991 28.6278 105.991C26.5414 105.991 25.1731 107.315 25.1731 109.812V115.74H23.0883V109.356C23.0883 107.098 22.002 105.991 20.1115 105.991C18.0267 105.991 16.6576 107.315 16.6576 109.812V115.74H14.5728V104.231H16.5707V105.946C17.3963 104.774 18.808 104.123 20.546 104.123C22.3062 104.123 23.7827 104.818 24.5435 106.25C25.4117 104.948 27.0201 104.123 28.9746 104.123C31.7768 104.123 33.6886 105.73 33.6886 109.117Z" fill="#D44427"></path>
  <path fill-rule="evenodd" clip-rule="evenodd" d="M44.5667 112.221V110.614H41.3514C39.2879 110.614 38.7017 111.417 38.7017 112.396C38.7017 113.546 39.6568 114.262 41.2431 114.262C42.8065 114.262 44.0453 113.546 44.5667 112.221ZM46.6523 108.791V115.739H44.6749V114.218C43.9805 115.261 42.6983 115.869 40.8963 115.869C38.2885 115.869 36.6382 114.479 36.6382 112.482C36.6382 110.636 37.8334 109.116 41.2645 109.116H44.5667V108.704C44.5667 106.945 43.5452 105.925 41.4825 105.925C40.1134 105.925 38.7238 106.402 37.8334 107.163L36.9637 105.598C38.1589 104.644 39.8748 104.123 41.7211 104.123C44.8708 104.123 46.6523 105.643 46.6523 108.791Z" fill="#D44427"></path>
  <path fill-rule="evenodd" clip-rule="evenodd" d="M50.5154 115.739H52.6011V99.6289H50.5154V115.739Z" fill="#D44427"></path>
  <path fill-rule="evenodd" clip-rule="evenodd" d="M56.574 115.739H58.6604V99.6289H56.574V115.739Z" fill="#D44427"></path>
  <path fill-rule="evenodd" clip-rule="evenodd" d="M78.5771 107.901H81.7917V114.068C80.1192 115.326 77.8163 116 75.6446 116C70.8651 116 67.3464 112.721 67.3464 108.14C67.3464 103.558 70.8651 100.28 75.7094 100.28C78.3812 100.28 80.5972 101.192 82.0745 102.907L79.8151 104.991C78.7075 103.819 77.4261 103.277 75.8832 103.277C72.9294 103.277 70.9085 105.252 70.9085 108.14C70.9085 110.984 72.9294 113.003 75.8397 113.003C76.7957 113.003 77.6868 112.829 78.5771 112.352V107.901Z" fill="#D44427"></path>
  <path fill-rule="evenodd" clip-rule="evenodd" d="M92.0628 103.884V107.01C91.7808 106.989 91.5635 106.967 91.3028 106.967C89.4352 106.967 88.1957 107.988 88.1957 110.224V115.74H84.8074V104.058H88.0448V105.599C88.8704 104.47 90.2608 103.884 92.0628 103.884Z" fill="#D44427"></path>
  <path fill-rule="evenodd" clip-rule="evenodd" d="M100.968 112.048V110.853H98.6439C97.0575 110.853 96.5583 111.439 96.5583 112.222C96.5583 113.068 97.2748 113.633 98.4701 113.633C99.5998 113.633 100.577 113.112 100.968 112.048ZM104.356 109.073V115.74H101.185V114.284C100.556 115.348 99.3383 115.913 97.6224 115.913C94.8858 115.913 93.2568 114.393 93.2568 112.374C93.2568 110.311 94.712 108.878 98.2749 108.878H100.968C100.968 107.424 100.098 106.576 98.2749 106.576C97.0354 106.576 95.754 106.989 94.9071 107.662L93.6905 105.295C94.9727 104.384 96.8624 103.884 98.73 103.884C102.293 103.884 104.356 105.534 104.356 109.073Z" fill="#D44427"></path>
  <path fill-rule="evenodd" clip-rule="evenodd" d="M119.364 109.052V115.74H115.975V109.572C115.975 107.684 115.106 106.816 113.608 106.816C111.978 106.816 110.805 107.814 110.805 109.963V115.74H107.416V104.058H110.654V105.426C111.565 104.427 112.934 103.884 114.519 103.884C117.278 103.884 119.364 105.491 119.364 109.052Z" fill="#D44427"></path>
  <path fill-rule="evenodd" clip-rule="evenodd" d="M129.961 115.175C129.266 115.674 128.245 115.913 127.203 115.913C124.444 115.913 122.836 114.5 122.836 111.722V106.924H121.033V104.319H122.836V101.474H126.225V104.319H129.136V106.924H126.225V111.678C126.225 112.678 126.768 113.22 127.68 113.22C128.18 113.22 128.679 113.068 129.049 112.786L129.961 115.175Z" fill="#D44427"></path>
  <path fill-rule="evenodd" clip-rule="evenodd" d="M130.741 114.654L131.871 112.222C132.914 112.894 134.5 113.351 135.933 113.351C137.498 113.351 138.084 112.939 138.084 112.286C138.084 110.376 131.023 112.331 131.023 107.662C131.023 105.448 133.023 103.884 136.433 103.884C138.04 103.884 139.821 104.253 140.929 104.905L139.8 107.315C138.649 106.663 137.498 106.445 136.433 106.445C134.912 106.445 134.26 106.924 134.26 107.531C134.26 109.53 141.32 107.597 141.32 112.2C141.32 114.372 139.3 115.913 135.803 115.913C133.826 115.913 131.828 115.37 130.741 114.654Z" fill="#D44427"></path>
  <path fill-rule="evenodd" clip-rule="evenodd" d="M47.3676 13.7622C45.2267 14.003 43.3962 13.35 43.2785 12.3045C43.1608 11.2582 44.8008 10.2159 46.9418 9.97504C49.0827 9.7342 50.9131 10.3872 51.0308 11.4335C51.1485 12.479 49.5085 13.5214 47.3676 13.7622ZM61.4589 5.35639C58.212 5.04132 55.4746 6.04101 53.4656 7.20653C52.9482 7.5066 52.3193 7.53108 51.7837 7.26418C50.8191 6.70274 49.8743 6.28422 48.9752 5.9731C48.2413 5.71884 48.0478 4.79653 48.5968 4.24772C49.4184 3.42885 50.4178 2.68421 51.636 2.13146C52.0476 1.9451 52.3494 1.53922 52.302 1.08991C52.223 0.350801 51.4811 -0.0305991 50.8665 0.24183C48.7556 1.1823 47.1938 2.57208 46.0475 4.01951C45.496 4.7144 44.631 5.08949 43.7438 5.07369C43.194 5.06264 42.7531 5.07606 42.4482 5.07606C36.7238 5.33112 34.018 7.21443 34.018 7.21443L34.0401 7.22154C33.3394 7.64716 32.901 8.44155 33.0187 9.2762C33.2296 10.7679 34.4391 12.3811 36.7688 13.7432C42.5951 17.1474 51.963 17.397 54.4373 13.166C55.0567 12.1071 55.0441 11.034 54.5701 10.0145C54.341 9.52337 54.5574 8.92797 55.0378 8.67765C56.7134 7.80509 58.8685 7.12994 61.3278 7.39368C61.8974 7.44501 62.3975 7.04071 62.4504 6.47374C62.5033 5.90677 62.0254 5.41166 61.4589 5.35639Z" fill="#D44427"></path>
  <path fill-rule="evenodd" clip-rule="evenodd" d="M39.0305 29.4062C37.2103 32.5577 33.9183 34.0628 31.6763 32.7693C29.435 31.4759 29.093 27.8727 30.9132 24.722C32.7333 21.5713 36.0253 20.0655 38.2673 21.3589C40.5086 22.6524 40.8507 26.2555 39.0305 29.4062ZM29.3434 51.1761C24.1839 53.0009 18.9785 51.5946 17.7177 48.0341C16.4576 44.4743 19.6192 40.1083 24.7795 38.2835C29.9391 36.4586 35.1444 37.865 36.4045 41.4255C37.6646 44.986 34.5037 49.3512 29.3434 51.1761ZM48.7191 20.5724C48.317 19.3343 47.1431 18.5415 45.8396 18.543C45.8324 18.543 45.8261 18.543 45.819 18.543C43.039 18.543 40.4154 18.029 38.0959 17.1185C37.0136 16.6945 35.8041 16.7221 34.7842 17.2804C29.5543 20.1421 23.4974 24.722 18.4887 31.9821C15.034 36.9892 12.081 43.2669 10.2458 51.1271C10.0799 51.8402 10.4133 52.5777 11.046 52.9472C19.6674 57.9734 32.1685 55.7008 41.0102 46.863C41.9503 45.9233 42.8154 44.941 43.6046 43.9271C44.2137 43.1445 44.1244 42.0185 43.4071 41.3339C41.9567 39.9512 40.0733 38.2337 41.357 34.1536C42.486 30.5662 44.5171 28.2312 47.6337 28.7729C48.6891 28.9561 49.7114 28.2857 49.7177 27.215C49.7311 24.9147 49.4001 22.6745 48.7191 20.5724Z" fill="#D44427"></path>
  <path fill-rule="evenodd" clip-rule="evenodd" d="M22.2412 16.5224C19.7061 17.8688 17.1299 17.9809 16.4884 16.7727C15.8461 15.5646 17.3811 13.4941 19.9162 12.1478C22.4514 10.8014 25.0268 10.6893 25.6691 11.8975C26.3113 13.1056 24.7764 15.1761 22.2412 16.5224ZM31.1335 12.1075C30.4518 11.2294 29.898 10.285 29.4919 9.28924C29.1696 8.49801 28.1671 7.96026 27.3202 8.07239C21.5057 8.84151 15.5475 11.7048 10.6913 16.5587C10.1162 17.1336 9.5774 17.7282 9.05916 18.3323C8.6365 18.7477 8.23992 19.1693 7.86625 19.5934C7.22555 20.3214 7.42937 21.4514 8.29364 21.8912C9.08523 22.294 9.91631 22.6564 10.7442 22.9241C12.1157 23.3679 12.092 24.8114 11.6907 26.1956C10.5467 30.1399 8.17672 33.1011 3.55439 32.9424C2.46022 32.9053 1.91512 34.3946 1.91828 35.489C1.92065 36.3521 1.97279 37.0028 2.01229 37.3699C2.18056 41.0876 3.2605 44.6142 5.29872 47.5943C5.90545 48.4819 7.28006 48.2355 7.57236 47.2003C12.0343 31.4357 20.8366 22.2963 28.0367 17.2165C28.8741 16.6251 29.7036 16.0794 30.5221 15.5725C31.7213 14.8294 31.9994 13.2217 31.1335 12.1075Z" fill="#D44427"></path>
</svg>
